<?xml version="1.0" encoding="iso-8859-1"?>
<!-- Generator: Adobe Illustrator 19.0.0, SVG Export Plug-In . SVG Version: 6.00 Build 0)  -->
<svg version="1.1" id="Capa_1" xmlns="http://www.w3.org/2000/svg" xmlns:xlink="http://www.w3.org/1999/xlink" x="0px" y="0px"
	 viewBox="0 0 512 512" style="enable-background:new 0 0 512 512;" xml:space="preserve">
<path style="fill:#5C5E70;" d="M512,255.999c0,14.407-1.198,28.812-3.6,43.017c-2.298,13.595-5.706,27.004-10.176,40.047
	c-4.35,12.693-9.711,25.04-16.009,36.889c-6.653,12.516-14.347,24.475-22.975,35.721c-8.612,11.227-18.147,21.74-28.49,31.397
	c-8.846,8.259-18.264,15.903-28.18,22.841c-9.784,6.846-20.046,13.008-30.689,18.421c-10.744,5.464-21.876,10.165-33.285,14.052
	c-11.585,3.947-23.456,7.053-35.489,9.29c-12.387,2.303-24.942,3.68-37.531,4.147c-13.54,0.502-27.122-0.059-40.574-1.681
	c-12.26-1.479-24.412-3.846-36.329-7.085c-11.7-3.181-23.17-7.2-34.296-12.018c-11.047-4.784-21.754-10.352-32.014-16.646
	c-10.147-6.223-19.858-13.156-29.043-20.728c-10.341-8.525-20.03-17.851-28.921-27.88c-9.011-10.164-17.217-21.042-24.511-32.501
	c-7.233-11.362-13.569-23.295-18.921-35.655c-5.372-12.407-9.751-25.242-13.081-38.345c-3.523-13.867-5.879-28.03-7.035-42.291
	c-1.187-14.626-1.131-29.356,0.17-43.972c1.237-13.893,3.611-27.684,7.096-41.19c3.397-13.165,7.853-26.056,13.313-38.508
	c5.536-12.626,12.097-24.804,19.596-36.372c7.756-11.964,16.51-23.265,26.124-33.793c7.853-8.599,16.319-16.648,25.274-24.092
	c8.855-7.361,18.205-14.128,27.968-20.235c9.823-6.145,20.063-11.622,30.628-16.379c10.68-4.808,21.692-8.877,32.933-12.168
	c11.43-3.346,23.096-5.886,34.882-7.601c12.075-1.756,24.274-2.646,36.476-2.678c13.702-0.037,27.405,1.007,40.94,3.144
	c13.143,2.075,26.122,5.182,38.779,9.287c12.722,4.126,25.118,9.26,37.035,15.332c11.938,6.083,23.395,13.111,34.235,20.987
	c10.361,7.527,20.158,15.83,29.284,24.814c9.145,9.002,17.617,18.689,25.32,28.952c8.284,11.036,15.671,22.744,22.07,34.97
	c6.233,11.911,11.521,24.316,15.795,37.061c4.338,12.939,7.639,26.234,9.846,39.702C510.876,228.044,512,242.021,512,255.999z"/>
<path style="fill:#F4A14E;" d="M427.834,445.751c-42.799,38.797-98.784,63.3-160.433,65.995c-3.783,0.167-7.575,0.251-11.4,0.251
	s-7.617-0.084-11.4-0.251c-61.649-2.696-117.634-27.199-160.433-65.995l10.919-5.193l95.075-45.275l65.839-31.347l65.839,31.347
	l95.075,45.275L427.834,445.751z"/>
<path style="fill:#FFD15C;" d="M479.995,380.038c-5.088,9.159-10.735,18-16.894,26.474c-3.042,4.186-6.219,8.278-9.511,12.27
	c-1.57,1.906-3.18,3.779-4.796,5.646c-0.545,0.629-1.017,1.36-1.736,1.777c-1.088,0.631-2.311,1.1-3.446,1.642
	c-2.038,0.97-4.075,1.94-6.112,2.91c-4.754,2.263-9.509,4.528-14.263,6.791c-2.835,1.35-5.671,2.7-8.505,4.05
	c-4.626,2.203-9.251,4.405-13.877,6.607c-7.717,3.674-15.434,7.349-23.151,11.023c-9.4,4.475-18.801,8.952-28.201,13.427
	c-9.74,4.637-19.48,9.276-29.22,13.913c-8.741,4.162-17.482,8.324-26.223,12.485c-6.318,3.008-12.637,6.018-18.955,9.026
	c-1.84,0.877-3.681,1.752-5.521,2.629c-0.692,0.329-1.43,0.814-2.167,1.032c-0.353,0.104-0.862,0.044-1.232,0.059
	c-1.353,0.053-2.707,0.096-4.061,0.128c-2.654,0.063-5.309,0.085-7.964,0.066c-2.647-0.019-5.292-0.077-7.937-0.178
	c-0.537-0.02-1.185,0.054-1.702-0.104c-0.877-0.27-1.75-0.833-2.576-1.226c-4.84-2.304-9.68-4.609-14.52-6.913
	c-7.796-3.711-15.592-7.424-23.388-11.135c-9.482-4.515-18.964-9.029-28.446-13.544c-9.75-4.642-19.499-9.284-29.249-13.926
	c-8.616-4.102-17.231-8.204-25.847-12.307c-6.149-2.928-12.299-5.857-18.449-8.784c-2.322-1.106-4.645-2.211-6.966-3.316
	c-7.354-3.501-14.707-7.003-22.061-10.504c-1.906-0.908-3.812-1.815-5.718-2.723c-0.833-0.396-1.853-0.719-2.614-1.244
	c-0.402-0.278-0.716-0.783-1.041-1.152c-0.875-0.995-1.741-1.997-2.6-3.005c-1.596-1.873-3.164-3.77-4.706-5.688
	c-3.087-3.841-6.061-7.771-8.921-11.782c-5.59-7.841-10.74-15.997-15.413-24.418c5.827-2.773,11.655-5.546,17.482-8.319
	c10.477-4.986,20.954-9.972,31.431-14.958c4.788-2.279,9.575-4.556,14.363-6.836c5.124-2.44,10.248-4.881,15.372-7.321
	c10.028-4.775,20.055-9.55,30.082-14.325c10.294-4.902,20.587-9.804,30.882-14.706c5.923-2.821,11.847-5.641,17.772-8.463
	c3.828-1.823,7.657-3.646,11.484-5.468c10.262-4.886,20.524-9.772,30.786-14.658c7.712-3.672,15.425-7.345,23.138-11.016
	c0.29-0.138,0.872-0.573,1.204-0.57c0.379,0.002,1.038,0.494,1.371,0.652c3.019,1.437,6.037,2.874,9.056,4.311
	c10.235,4.873,20.47,9.746,30.705,14.619c7.797,3.712,15.593,7.424,23.39,11.136c2.928,1.394,5.855,2.788,8.781,4.182
	c8.764,4.173,17.526,8.346,26.289,12.519c10.735,5.112,21.47,10.224,32.205,15.336c8.071,3.843,16.14,7.686,24.211,11.529
	c2.747,1.308,5.493,2.615,8.24,3.923c8.961,4.264,17.922,8.529,26.883,12.794c9.384,4.466,18.767,8.932,28.151,13.398
	C476.857,378.545,478.426,379.291,479.995,380.038z"/>
<path style="fill:#F9AF6B;" d="M416.915,440.558l-149.514,71.188c-3.783,0.167-7.575,0.251-11.4,0.251
	c-3.824,0-7.617-0.084-11.4-0.251L95.088,440.558l95.075-45.275l65.839-31.347l65.839,31.347L416.915,440.558z"/>
<path style="fill:#4BC999;" d="M507.747,302.716c-0.272,1.494-0.564,2.978-0.867,4.462l-89.965,42.841l-95.075,45.265
	l-65.839,31.347l-65.839-31.347l-95.075-45.265L5.123,307.178c-0.303-1.484-0.596-2.967-0.867-4.462l90.832-43.238l95.075-45.275
	l65.839-31.347l65.839,31.347l95.075,45.275L507.747,302.716z"/>
<polygon style="fill:#5BD3A2;" points="95.084,350.014 255.998,426.628 416.914,350.014 255.998,273.401 "/>
<polygon style="fill:#34ABE0;" points="511.997,123.667 256.006,245.553 175.748,207.341 82.656,163.017 0,123.667 256.006,1.79 
	292.178,19.01 385.283,63.333 "/>
<polygon style="fill:#FF525D;" points="255.998,336.088 0.001,214.204 255.998,92.321 511.997,214.204 "/>
<polygon style="fill:#FF6E7C;" points="95.084,259.474 255.998,336.088 416.914,259.474 255.998,182.861 "/>
<polygon style="fill:#78CAEF;" points="95.078,168.938 255.998,245.553 416.919,168.938 255.998,92.321 "/>
<g>
</g>
<g>
</g>
<g>
</g>
<g>
</g>
<g>
</g>
<g>
</g>
<g>
</g>
<g>
</g>
<g>
</g>
<g>
</g>
<g>
</g>
<g>
</g>
<g>
</g>
<g>
</g>
<g>
</g>
</svg>
